<svg xmlns="http://www.w3.org/2000/svg" width="61.6" height="77" viewBox="0 0 61.6 77">
  <g id="Calculator" transform="translate(-8 -2)">
    <path id="Path_106" data-name="Path 106" d="M60.617,79H16.983A8.994,8.994,0,0,1,8,70.017V10.983A8.994,8.994,0,0,1,16.983,2H60.617A8.994,8.994,0,0,1,69.6,10.983V70.017A8.994,8.994,0,0,1,60.617,79ZM16.983,4.567a6.424,6.424,0,0,0-6.417,6.417V70.017a6.424,6.424,0,0,0,6.417,6.417H60.617a6.424,6.424,0,0,0,6.417-6.417V10.983a6.424,6.424,0,0,0-6.417-6.417Z" fill="#328ae5"/>
    <path id="Path_107" data-name="Path 107" d="M37.55,60.833h-7.7A3.85,3.85,0,0,1,26,56.983V51.85A3.85,3.85,0,0,1,29.85,48h7.7a3.85,3.85,0,0,1,3.85,3.85v5.133A3.85,3.85,0,0,1,37.55,60.833Zm-7.7-10.267a1.283,1.283,0,0,0-1.283,1.283v5.133a1.283,1.283,0,0,0,1.283,1.283h7.7a1.283,1.283,0,0,0,1.283-1.283V51.85a1.283,1.283,0,0,0-1.283-1.283Z" transform="translate(5.1 13.033)" fill="#328ae5"/>
    <path id="Path_108" data-name="Path 108" d="M23.55,60.833h-7.7A3.85,3.85,0,0,1,12,56.983V51.85A3.85,3.85,0,0,1,15.85,48h7.7a3.85,3.85,0,0,1,3.85,3.85v5.133A3.85,3.85,0,0,1,23.55,60.833Zm-7.7-10.267a1.283,1.283,0,0,0-1.283,1.283v5.133a1.283,1.283,0,0,0,1.283,1.283h7.7a1.283,1.283,0,0,0,1.283-1.283V51.85a1.283,1.283,0,0,0-1.283-1.283Z" transform="translate(1.133 13.033)" fill="#328ae5"/>
    <path id="Path_109" data-name="Path 109" d="M51.55,64.233h-7.7A3.85,3.85,0,0,1,40,60.383V39.85A3.85,3.85,0,0,1,43.85,36h7.7a3.85,3.85,0,0,1,3.85,3.85V60.383A3.85,3.85,0,0,1,51.55,64.233Zm-7.7-25.667a1.283,1.283,0,0,0-1.283,1.283V60.383a1.283,1.283,0,0,0,1.283,1.283h7.7a1.283,1.283,0,0,0,1.283-1.283V39.85a1.283,1.283,0,0,0-1.283-1.283Z" transform="translate(9.067 9.633)" fill="#328ae5"/>
    <path id="Path_110" data-name="Path 110" d="M37.55,48.833h-7.7A3.85,3.85,0,0,1,26,44.983V39.85A3.85,3.85,0,0,1,29.85,36h7.7a3.85,3.85,0,0,1,3.85,3.85v5.133A3.85,3.85,0,0,1,37.55,48.833Zm-7.7-10.267a1.283,1.283,0,0,0-1.283,1.283v5.133a1.283,1.283,0,0,0,1.283,1.283h7.7a1.283,1.283,0,0,0,1.283-1.283V39.85a1.283,1.283,0,0,0-1.283-1.283Z" transform="translate(5.1 9.633)" fill="#328ae5"/>
    <path id="Path_111" data-name="Path 111" d="M23.55,48.833h-7.7A3.85,3.85,0,0,1,12,44.983V39.85A3.85,3.85,0,0,1,15.85,36h7.7a3.85,3.85,0,0,1,3.85,3.85v5.133A3.85,3.85,0,0,1,23.55,48.833Zm-7.7-10.267a1.283,1.283,0,0,0-1.283,1.283v5.133a1.283,1.283,0,0,0,1.283,1.283h7.7a1.283,1.283,0,0,0,1.283-1.283V39.85a1.283,1.283,0,0,0-1.283-1.283Z" transform="translate(1.133 9.633)" fill="#328ae5"/>
    <path id="Path_112" data-name="Path 112" d="M37.55,36.833h-7.7A3.85,3.85,0,0,1,26,32.983V27.85A3.85,3.85,0,0,1,29.85,24h7.7a3.85,3.85,0,0,1,3.85,3.85v5.133A3.85,3.85,0,0,1,37.55,36.833Zm-7.7-10.267a1.283,1.283,0,0,0-1.283,1.283v5.133a1.283,1.283,0,0,0,1.283,1.283h7.7a1.283,1.283,0,0,0,1.283-1.283V27.85a1.283,1.283,0,0,0-1.283-1.283Z" transform="translate(5.1 6.233)" fill="#328ae5"/>
    <path id="Path_113" data-name="Path 113" d="M23.55,36.833h-7.7A3.85,3.85,0,0,1,12,32.983V27.85A3.85,3.85,0,0,1,15.85,24h7.7a3.85,3.85,0,0,1,3.85,3.85v5.133A3.85,3.85,0,0,1,23.55,36.833Zm-7.7-10.267a1.283,1.283,0,0,0-1.283,1.283v5.133a1.283,1.283,0,0,0,1.283,1.283h7.7a1.283,1.283,0,0,0,1.283-1.283V27.85a1.283,1.283,0,0,0-1.283-1.283Z" transform="translate(1.133 6.233)" fill="#328ae5"/>
    <path id="Path_114" data-name="Path 114" d="M51.55,36.833h-7.7A3.85,3.85,0,0,1,40,32.983V27.85A3.85,3.85,0,0,1,43.85,24h7.7a3.85,3.85,0,0,1,3.85,3.85v5.133A3.85,3.85,0,0,1,51.55,36.833Zm-7.7-10.267a1.283,1.283,0,0,0-1.283,1.283v5.133a1.283,1.283,0,0,0,1.283,1.283h7.7a1.283,1.283,0,0,0,1.283-1.283V27.85a1.283,1.283,0,0,0-1.283-1.283Z" transform="translate(9.067 6.233)" fill="#328ae5"/>
    <path id="Path_115" data-name="Path 115" d="M59.483,23.967H15.85A3.85,3.85,0,0,1,12,20.117V9.85A3.85,3.85,0,0,1,15.85,6H59.483a3.85,3.85,0,0,1,3.85,3.85V20.117A3.85,3.85,0,0,1,59.483,23.967ZM15.85,8.567A1.283,1.283,0,0,0,14.567,9.85V20.117A1.283,1.283,0,0,0,15.85,21.4H59.483a1.283,1.283,0,0,0,1.283-1.283V9.85a1.283,1.283,0,0,0-1.283-1.283Z" transform="translate(1.133 1.133)" fill="#328ae5"/>
    <path id="Path_116" data-name="Path 116" d="M46.85,19.267A3.85,3.85,0,0,1,43,15.417V12.85a3.85,3.85,0,1,1,7.7,0v2.567A3.85,3.85,0,0,1,46.85,19.267Zm0-7.7a1.283,1.283,0,0,0-1.283,1.283v2.567a1.283,1.283,0,1,0,2.567,0V12.85A1.283,1.283,0,0,0,46.85,11.567Z" transform="translate(9.917 1.983)" fill="#328ae5"/>
  </g>
</svg>
