<svg xmlns="http://www.w3.org/2000/svg" width="76.554" height="82.315" viewBox="0 0 76.554 82.315">
  <g id="_679425" data-name="679425" transform="translate(-17.918)">
    <g id="Group_20" data-name="Group 20" transform="translate(17.918)">
      <g id="Group_19" data-name="Group 19">
        <path id="Path_81" data-name="Path 81" d="M92.864,28.83H69.038C68.525,20.642,66.107,13.675,62,8.608A22.973,22.973,0,0,0,43.53,0a22.952,22.952,0,0,0-18.9,9.155C20.7,14.281,18.431,21.189,18,29.259a7.341,7.341,0,0,0-.079,1.067v2.9a7.328,7.328,0,0,0,.052.859c.242,4.967,1.328,15.4,3.2,20.952a7.488,7.488,0,0,0-2.4,5.5V80.707a1.608,1.608,0,0,0,1.608,1.608h46.3a1.608,1.608,0,0,0,1.608-1.608V65.539l9.428-7.326H92.864a1.608,1.608,0,0,0,1.608-1.608V30.438A1.608,1.608,0,0,0,92.864,28.83ZM43.53,3.215c11.431,0,19.38,7.782,21.7,20.723A7.284,7.284,0,0,0,61.664,23H58.957a1.6,1.6,0,0,0-.236-.019H46.606a6.466,6.466,0,0,1-5.72-3.436l-1.762-3.312a1.608,1.608,0,0,0-2.762-.13l-2.617,3.967a6.459,6.459,0,0,1-4.175,2.793,21,21,0,0,1,3.406-7.316,12.62,12.62,0,0,1,10.553-5.032,12.63,12.63,0,0,1,9.891,4.228,1.608,1.608,0,0,0,2.406-2.133A15.719,15.719,0,0,0,43.53,7.3,15.691,15.691,0,0,0,30.424,13.6,24.51,24.51,0,0,0,26.221,23h-.989a7.277,7.277,0,0,0-3.37.83C24.23,11.075,32.214,3.215,43.53,3.215ZM65.483,28.83H60.33V26.22h1.332A4.119,4.119,0,0,1,65.483,28.83ZM21.171,33.775c-.025-.568-.038-1.063-.037-1.469v-.148q0-1.3.064-2.551a4.115,4.115,0,0,1,4.037-3.387h1.5V37.33h-1.5A4.106,4.106,0,0,1,21.171,33.775Zm4.064,6.77h3.1a1.614,1.614,0,0,0,.269-.024,16.727,16.727,0,0,0,7.655,7.406v5.1H26.281c-.116,0-.231,0-.346.009l-.108.006q-.121.007-.241.018l-.117.011q-.138.015-.275.035l-.084.012q-.15.024-.3.053l-.126.027c-.069.015-.138.031-.206.048l-.128.032q-.114.03-.227.065l-.093.027-.014,0A84.767,84.767,0,0,1,21.63,39.592,7.269,7.269,0,0,0,25.235,40.545ZM41.922,79.1H21.987V60.539A4.293,4.293,0,0,1,24,56.9q.1-.062.2-.118l.035-.02c.078-.042.157-.082.237-.119l.067-.031q.107-.048.216-.09l.037-.015c.085-.032.172-.06.259-.086l.057-.016c.075-.021.15-.041.226-.058l.05-.012q.135-.029.272-.049l.048-.006q.114-.015.23-.025L26,56.255c.092-.006.184-.01.277-.01h7.676l7.965,11.39V79.1ZM37.881,56.245c.029,0,.057,0,.085,0s.049,0,.073,0,.059-.009.089-.014.047-.006.07-.011.057-.014.085-.022.046-.011.068-.018.054-.019.081-.03.045-.015.067-.025.051-.025.077-.037.042-.02.063-.031.049-.03.074-.045.04-.023.058-.036.046-.034.069-.052.037-.026.054-.041.042-.038.063-.057.035-.03.051-.046.038-.042.057-.063.032-.033.046-.051.035-.046.052-.069.028-.036.041-.054.03-.049.045-.074.024-.038.035-.058.025-.051.037-.077.021-.041.03-.063.021-.056.031-.084.016-.042.023-.063.017-.065.025-.1.01-.037.014-.056c.007-.036.012-.073.017-.11,0-.017.006-.033.008-.05a1.627,1.627,0,0,0,.008-.164v-7.76c0-.041,0-.082,0-.122a1.608,1.608,0,0,0-1-1.369A13.526,13.526,0,0,1,29.945,32.78V26.067a9.666,9.666,0,0,0,6.485-4.224l1.126-1.707.491.922A9.676,9.676,0,0,0,46.606,26.2H57.115v5.615a7.353,7.353,0,0,1-5.648,7.169l-.092.025-2.21.674a4.121,4.121,0,0,0-3.842-2.642H42.541a4.116,4.116,0,0,0,0,8.231h2.782a4.119,4.119,0,0,0,3.621-2.16L52.268,42.1a10.72,10.72,0,0,0,1.652-.552,13.605,13.605,0,0,1-5.33,3.84,1.608,1.608,0,0,0-1.008,1.492v7.76a1.626,1.626,0,0,0,.008.164c0,.018.006.036.008.055,0,.035.009.07.016.1s.011.043.017.065.014.06.023.089.017.046.025.069.018.053.028.078.022.046.033.069.022.048.034.071.027.044.04.067.026.045.04.066.031.041.046.062.03.042.046.062.035.038.052.058.033.038.051.056.038.035.057.052.037.036.057.052.04.031.061.046.041.032.063.047.044.027.065.04.044.028.067.041.046.023.069.034.047.024.071.034.047.018.071.027.05.02.076.028.048.013.072.019.054.015.082.021.048.008.072.012.058.01.087.013.049,0,.073,0,.056,0,.085,0L43.53,64.323ZM57.114,42.689V53.03H50.8v-5.1l.029-.014q.242-.116.479-.24l.172-.093c.11-.059.219-.118.327-.178L52,47.289c.1-.058.2-.116.3-.175l.2-.122q.143-.089.283-.181l.191-.127q.142-.1.282-.195l.178-.127c.1-.072.2-.146.295-.22l.152-.115q.189-.147.373-.3l.059-.048q.214-.178.422-.363l.112-.1c.1-.09.2-.181.3-.273.048-.046.1-.092.143-.139.085-.083.17-.166.253-.25l.148-.153q.119-.124.235-.249l.146-.16c.077-.086.152-.172.227-.259.046-.053.091-.106.136-.159.078-.093.154-.187.23-.282.039-.049.079-.1.117-.146.091-.115.179-.232.266-.35l.066-.088ZM46.223,41.157a.9.9,0,0,1-.9.9H42.541a.9.9,0,1,1,0-1.8h2.782A.9.9,0,0,1,46.223,41.157ZM65.072,79.1H45.138V67.635L53.1,56.245h4.012v.36a1.608,1.608,0,0,0,1.608,1.608h5.665a4.284,4.284,0,0,1,.685,2.326ZM91.256,55H77.164a1.608,1.608,0,0,0-.987.338l-7.89,6.131V56.605A1.608,1.608,0,0,0,66.68,55H60.33V32.046H91.256Z" transform="translate(-17.918)" fill="#6bb4f8"/>
      </g>
    </g>
    <g id="Group_22" data-name="Group 22" transform="translate(84.045 36.906)">
      <g id="Group_21" data-name="Group 21">
        <path id="Path_82" data-name="Path 82" d="M432.413,230.848a1.667,1.667,0,0,0-.092-.3,1.632,1.632,0,0,0-.148-.277,1.538,1.538,0,0,0-.2-.244,1.554,1.554,0,0,0-.244-.2,1.587,1.587,0,0,0-.278-.148,1.62,1.62,0,0,0-.3-.092,1.591,1.591,0,0,0-.629,0,1.7,1.7,0,0,0-.3.092,1.627,1.627,0,0,0-.276.148,1.63,1.63,0,0,0-.445.445,1.636,1.636,0,0,0-.148.277,1.657,1.657,0,0,0-.092.3,1.591,1.591,0,0,0-.031.315,1.575,1.575,0,0,0,.031.314,1.619,1.619,0,0,0,.092.3,1.645,1.645,0,0,0,.148.278,1.6,1.6,0,0,0,.445.444,1.629,1.629,0,0,0,.276.148,1.7,1.7,0,0,0,.3.092,1.609,1.609,0,0,0,.315.032,1.582,1.582,0,0,0,.314-.032,1.623,1.623,0,0,0,.3-.092,1.589,1.589,0,0,0,.278-.148,1.562,1.562,0,0,0,.444-.444,1.633,1.633,0,0,0,.24-.579,1.59,1.59,0,0,0,.032-.314A1.619,1.619,0,0,0,432.413,230.848Z" transform="translate(-429.23 -229.555)" fill="#6bb4f8"/>
      </g>
    </g>
    <g id="Group_24" data-name="Group 24" transform="translate(64.326 36.906)">
      <g id="Group_23" data-name="Group 23">
        <path id="Path_83" data-name="Path 83" d="M322.275,229.557H308.183a1.608,1.608,0,1,0,0,3.215h14.092a1.608,1.608,0,0,0,0-3.215Z" transform="translate(-306.575 -229.557)" fill="#6bb4f8"/>
      </g>
    </g>
    <g id="Group_26" data-name="Group 26" transform="translate(64.325 44.862)">
      <g id="Group_25" data-name="Group 25">
        <path id="Path_84" data-name="Path 84" d="M309.754,280.334a1.624,1.624,0,0,0-.092-.3,1.574,1.574,0,0,0-.148-.278,1.605,1.605,0,0,0-1.952-.592,1.713,1.713,0,0,0-.278.148,1.618,1.618,0,0,0-.244.2,1.54,1.54,0,0,0-.2.244,1.586,1.586,0,0,0-.148.278,1.624,1.624,0,0,0-.092.3,1.586,1.586,0,0,0-.032.314,1.617,1.617,0,0,0,.471,1.137,1.585,1.585,0,0,0,.523.349,1.624,1.624,0,0,0,.3.092,1.6,1.6,0,0,0,.315.031,1.61,1.61,0,0,0,1.484-.992,1.7,1.7,0,0,0,.092-.3,1.607,1.607,0,0,0,.031-.315A1.584,1.584,0,0,0,309.754,280.334Z" transform="translate(-306.569 -279.041)" fill="#6bb4f8"/>
      </g>
    </g>
    <g id="Group_28" data-name="Group 28" transform="translate(69.953 44.86)">
      <g id="Group_27" data-name="Group 27">
        <path id="Path_85" data-name="Path 85" d="M357.275,279.032H343.183a1.608,1.608,0,1,0,0,3.215h14.092a1.608,1.608,0,0,0,0-3.215Z" transform="translate(-341.575 -279.032)" fill="#6bb4f8"/>
      </g>
    </g>
    <g id="Group_30" data-name="Group 30" transform="translate(56.137 17.083)">
      <g id="Group_29" data-name="Group 29">
        <path id="Path_86" data-name="Path 86" d="M258.823,107.548a1.7,1.7,0,0,0-.092-.3,1.634,1.634,0,0,0-.148-.277,1.539,1.539,0,0,0-.2-.244,1.727,1.727,0,0,0-.244-.2,1.641,1.641,0,0,0-.278-.148,1.622,1.622,0,0,0-.3-.092,1.591,1.591,0,0,0-.629,0,1.659,1.659,0,0,0-.3.092,1.63,1.63,0,0,0-.277.148,1.743,1.743,0,0,0-.246.2,1.63,1.63,0,0,0-.347.521,1.7,1.7,0,0,0-.092.3,1.616,1.616,0,0,0,.439,1.452,1.661,1.661,0,0,0,.523.347,1.663,1.663,0,0,0,.3.092,1.614,1.614,0,0,0,.315.032,1.585,1.585,0,0,0,.314-.032,1.625,1.625,0,0,0,.3-.092,1.643,1.643,0,0,0,.278-.148,1.613,1.613,0,0,0,.244-.2,1.538,1.538,0,0,0,.2-.244,1.589,1.589,0,0,0,.148-.278,1.624,1.624,0,0,0,.092-.3,1.583,1.583,0,0,0,.032-.313A1.612,1.612,0,0,0,258.823,107.548Z" transform="translate(-255.64 -106.255)" fill="#6bb4f8"/>
      </g>
    </g>
    <g id="Group_32" data-name="Group 32" transform="translate(49.942 62.466)">
      <g id="Group_31" data-name="Group 31">
        <path id="Path_87" data-name="Path 87" d="M228.2,388.541h-9.486a1.608,1.608,0,0,0-1.608,1.608v5.305a4.668,4.668,0,0,0,4.662,4.662h3.376a4.668,4.668,0,0,0,4.662-4.662v-5.305A1.608,1.608,0,0,0,228.2,388.541Zm-1.608,6.913a1.449,1.449,0,0,1-1.447,1.447H221.77a1.449,1.449,0,0,1-1.447-1.447v-3.7h6.27Z" transform="translate(-217.108 -388.541)" fill="#6bb4f8"/>
      </g>
    </g>
  </g>
</svg>
