<svg xmlns="http://www.w3.org/2000/svg" width="57.293" height="85" viewBox="0 0 57.293 85">
  <g id="_912316" data-name="912316" transform="translate(-83.447)">
    <g id="Group_40" data-name="Group 40" transform="translate(83.447)">
      <path id="Path_117" data-name="Path 117" d="M139.5,68.87a1.245,1.245,0,0,0-1.245,1.245V81.822a.688.688,0,0,1-.687.687h-6.693V57.989a1.245,1.245,0,0,0-2.49,0V82.51H114.9l3.909-4.3a2.232,2.232,0,0,0,.539-1.791c0-.013,0-.025-.006-.038L115.62,54.39l1-1.51a2.824,2.824,0,0,0,1.783.773,2.18,2.18,0,0,0,1.952-1.207h0l3.926-7.869,8.944,3.464a8.628,8.628,0,0,1,5.022,7.842V64.3a1.245,1.245,0,0,0,2.49,0V55.883a11.112,11.112,0,0,0-6.572-10.148l-.024-.009L119.258,39.96V36.469a11.667,11.667,0,0,0,4.415-7.674,5.39,5.39,0,0,0,3.166-1.291,5.286,5.286,0,0,0,.552-7.459V15.432a15.432,15.432,0,1,0-30.863,0v4.733A5,5,0,0,0,95.244,23.5,5.276,5.276,0,0,0,97.08,27.5a5.387,5.387,0,0,0,3.164,1.291,11.543,11.543,0,0,0,4.668,7.859V39.96l-14.87,5.765-.023.009a11.112,11.112,0,0,0-6.572,10.148V81.822A3.181,3.181,0,0,0,86.625,85H98.488a1.245,1.245,0,1,0,0-2.49H95.809V57.989a1.245,1.245,0,0,0-2.49,0V82.51H86.625a.688.688,0,0,1-.687-.687V55.883a8.628,8.628,0,0,1,5.021-7.842L99.9,44.576l3.927,7.869a2.18,2.18,0,0,0,1.952,1.207,2.822,2.822,0,0,0,1.783-.773l1,1.51-3.722,21.992c0,.012,0,.025-.006.038a2.232,2.232,0,0,0,.539,1.791l3.909,4.3H104.3a1.245,1.245,0,0,0,0,2.49h33.264a3.182,3.182,0,0,0,3.178-3.178V70.116A1.246,1.246,0,0,0,139.5,68.87Zm-17.544-25.2-3.66,7.336-4.4-3.127,4.521-5.581Zm-7.36,7.764-.949,1.429h-3.1l-.949-1.429,2.5-1.777ZM107.4,40.362v-2.33a12.634,12.634,0,0,0,4.708.892,11.69,11.69,0,0,0,4.657-.971v2.418l-4.678,5.775ZM126.185,23.5a2.79,2.79,0,0,1-.969,2.117,2.9,2.9,0,0,1-1.438.662V20.719A2.817,2.817,0,0,1,126.185,23.5Zm-26.044,2.779A2.813,2.813,0,0,1,97.734,23.5a2.957,2.957,0,0,1,2.407-2.716Zm.067-8.032a6.156,6.156,0,0,0-1.19.268V15.432a12.941,12.941,0,1,1,25.882,0v3a5.535,5.535,0,0,0-1.123-.217c0-1.2.01-.97-3.92-5.2a2.215,2.215,0,0,0-2.828-.345,24.006,24.006,0,0,1-14.512,3.907A2.214,2.214,0,0,0,100.208,18.244Zm2.424,9.013V19.08a26.608,26.608,0,0,0,15.562-4.2c1.8,1.935,2.779,2.951,3.094,3.337v9.038a9.329,9.329,0,0,1-18.656,0Zm3.256,23.753-3.66-7.336,3.535-1.369,4.522,5.582Zm1.429,25.64,3.6-21.294h2.336l3.6,21.294-4.772,5.25Z" transform="translate(-83.447)" fill="#328ae5"/>
    </g>
  </g>
</svg>
