<svg xmlns="http://www.w3.org/2000/svg" width="80.003" height="80.001" viewBox="0 0 80.003 80.001">
  <g id="_1668269" data-name="1668269" transform="translate(0.001 -0.006)">
    <path id="Path_99" data-name="Path 99" d="M172.134,30.975c0-16.821-16.559-30.131-17.263-30.69a1.291,1.291,0,0,0-1.6,0C152.563.844,136,14.154,136,30.975c0,15.434,13.936,27.9,16.774,30.286V74.846a1.29,1.29,0,0,0,2.581,0V61.261c2.839-2.384,16.774-14.853,16.774-30.286ZM155.36,57.788v-14.6l7.278-6.057a1.291,1.291,0,0,0-1.651-1.985l-5.626,4.684V35.441l7.278-6.057a1.291,1.291,0,1,0-1.651-1.984l-5.626,4.686V26.408l7.278-6.057a1.291,1.291,0,1,0-1.651-1.984l-5.626,4.686V12.91a1.29,1.29,0,0,0-2.581,0V23.053l-5.626-4.684a1.291,1.291,0,1,0-1.651,1.985l7.277,6.057v5.677L147.153,27.4a1.291,1.291,0,1,0-1.651,1.985l7.277,6.054V39.83l-5.626-4.684a1.291,1.291,0,1,0-1.651,1.985l7.277,6.054v14.6c-4.387-4.116-14.194-14.666-14.194-26.813,0-13.541,12.205-25.122,15.484-27.988,3.279,2.865,15.484,14.446,15.484,27.988,0,12.147-9.807,22.7-14.194,26.813Zm0,0" transform="translate(-114.069)" fill="#328ae5"/>
    <path id="Path_100" data-name="Path 100" d="M30.968,202.586h-1.29v-9.475a6.407,6.407,0,0,0-1.89-4.561L16.925,177.682a3.872,3.872,0,0,0-5.463,0l-1.14,1.144V165.167a5.168,5.168,0,0,0-5.537-5.149A5.3,5.3,0,0,0,0,165.385v18.432a6.442,6.442,0,0,0,1.678,4.34L12.9,200.5v2.082h-1.29a1.29,1.29,0,0,0-1.29,1.29v9.032a1.29,1.29,0,0,0,1.29,1.29H30.968a1.29,1.29,0,0,0,1.29-1.29v-9.032a1.29,1.29,0,0,0-1.29-1.29ZM3.587,186.419a3.861,3.861,0,0,1-1.007-2.6V165.385a2.747,2.747,0,0,1,2.39-2.792,2.588,2.588,0,0,1,2.014.751,2.557,2.557,0,0,1,.757,1.823v15.7a3.844,3.844,0,0,0,1.134,2.738l6.986,6.986a1.29,1.29,0,0,0,1.825-1.825l-5.922-5.923a1.28,1.28,0,0,1,0-1.814l1.523-1.522a1.291,1.291,0,0,1,1.814,0l10.862,10.863a3.891,3.891,0,0,1,1.134,2.736v9.475H15.484v-3.08Zm26.09,25.2H12.9v-6.452H29.677Zm0,0" transform="translate(0 -134.192)" fill="#328ae5"/>
    <path id="Path_101" data-name="Path 101" d="M323.476,160.018a5.168,5.168,0,0,0-5.537,5.149v13.659l-1.139-1.14a3.872,3.872,0,0,0-5.463,0L300.475,188.55a6.41,6.41,0,0,0-1.891,4.561v9.475h-1.29a1.29,1.29,0,0,0-1.29,1.29v9.032a1.29,1.29,0,0,0,1.29,1.29h19.355a1.29,1.29,0,0,0,1.29-1.29v-9.032a1.29,1.29,0,0,0-1.29-1.29h-1.29V200.5l11.226-12.348a6.438,6.438,0,0,0,1.677-4.34V165.384a5.3,5.3,0,0,0-4.786-5.367Zm-8.118,51.6H298.584v-6.452h16.774Zm10.323-27.8a3.857,3.857,0,0,1-1.006,2.6l-11.9,13.087v3.08H301.165v-9.475a3.894,3.894,0,0,1,1.134-2.737l10.866-10.862a1.291,1.291,0,0,1,1.814,0l1.523,1.523a1.28,1.28,0,0,1,0,1.806l-5.926,5.926a1.29,1.29,0,1,0,1.825,1.824l6.986-6.985a3.85,3.85,0,0,0,1.133-2.734v-15.7a2.562,2.562,0,0,1,.757-1.823,2.591,2.591,0,0,1,2.014-.751,2.747,2.747,0,0,1,2.39,2.792Zm0,0" transform="translate(-248.261 -134.192)" fill="#328ae5"/>
    <path id="Path_102" data-name="Path 102" d="M240.378,480.341a1.349,1.349,0,0,0-.374.916,1.765,1.765,0,0,0,.026.258.835.835,0,0,0,.077.232,1.015,1.015,0,0,0,.116.232,2.159,2.159,0,0,0,.155.193,1.308,1.308,0,0,0,1.832,0l.155-.193a1.014,1.014,0,0,0,.116-.232.757.757,0,0,0,.076-.232,1.541,1.541,0,0,0,.027-.258,1.29,1.29,0,0,0-2.206-.916Zm0,0" transform="translate(-201.294 -402.54)" fill="#328ae5"/>
    <path id="Path_103" data-name="Path 103" d="M89.294,450.589h5.161a1.29,1.29,0,1,0,0-2.581H89.294a1.29,1.29,0,1,0,0,2.581Zm0,0" transform="translate(-73.811 -375.742)" fill="#328ae5"/>
    <path id="Path_104" data-name="Path 104" d="M144.8,450.5a1.288,1.288,0,1,0,0-2.375,1.324,1.324,0,0,0-.426.272,1.349,1.349,0,0,0-.374.916A1.239,1.239,0,0,0,144.8,450.5Zm0,0" transform="translate(-120.777 -375.752)" fill="#328ae5"/>
    <path id="Path_105" data-name="Path 105" d="M314.558,201.123a.763.763,0,0,0-.076-.232,1,1,0,0,0-.116-.232l-.155-.193a1.351,1.351,0,0,0-1.832,0,2,2,0,0,0-.155.193,1,1,0,0,0-.116.232.842.842,0,0,0-.078.232,1.974,1.974,0,0,0-.026.258,1.351,1.351,0,0,0,.374.916,1.33,1.33,0,0,0,.916.374,1.277,1.277,0,0,0,1.29-1.29A1.684,1.684,0,0,0,314.558,201.123Zm0,0" transform="translate(-261.681 -167.826)" fill="#328ae5"/>
  </g>
</svg>
