<svg xmlns="http://www.w3.org/2000/svg" width="24.375" height="24.415" viewBox="0 0 24.375 24.415">
  <g id="_1034146" data-name="1034146" transform="translate(0.249 0.286)">
    <g id="Group_35" data-name="Group 35" transform="translate(0.001 0.004)">
      <g id="Group_34" data-name="Group 34" transform="translate(0 0)">
        <path id="Path_91" data-name="Path 91" d="M23.871,9.132a.376.376,0,0,0-.016-.081.4.4,0,0,0-.023-.068.357.357,0,0,0-.04-.061.375.375,0,0,0-.053-.062c-.006-.006-.009-.013-.016-.019L19.9,5.869V2.788A1.194,1.194,0,0,0,18.7,1.595H14.39L12.664.254a1.18,1.18,0,0,0-1.451,0L9.485,1.595H5.173A1.194,1.194,0,0,0,3.979,2.788v3.08L.153,8.841c-.007.006-.01.013-.016.019a.373.373,0,0,0-.053.062.355.355,0,0,0-.04.061.393.393,0,0,0-.023.068.377.377,0,0,0-.016.08c0,.008,0,.016,0,.024V22.685a1.18,1.18,0,0,0,.234.7s0,.008.006.011l.013.011a1.188,1.188,0,0,0,.941.469H22.682a1.188,1.188,0,0,0,.944-.471s.008-.005.011-.009,0-.008.006-.011a1.181,1.181,0,0,0,.234-.7V9.155C23.876,9.147,23.871,9.14,23.871,9.132ZM11.7.882a.382.382,0,0,1,.475,0l.918.713H10.784ZM1.294,23.083,11.7,15a.382.382,0,0,1,.475,0l10.408,8.082Zm21.786-.62-10.416-8.09a1.181,1.181,0,0,0-1.451,0L.8,22.463V9.761l6.521,5.064A.4.4,0,1,0,7.8,14.2L1.18,9.052l2.8-2.176V9.951a.4.4,0,1,0,.8,0V2.788a.4.4,0,0,1,.4-.4H18.7a.4.4,0,0,1,.4.4V9.951a.4.4,0,1,0,.8,0V6.876l2.8,2.176-6.636,5.153a.4.4,0,1,0,.488.629L23.08,9.761v12.7Z" transform="translate(-0.001 -0.004)" fill="#0f8bfe" stroke="#0f8bfe" stroke-width="0.5"/>
        <path id="Path_92" data-name="Path 92" d="M163.124,74.6V73.012a4.775,4.775,0,1,0-4.775,4.775.4.4,0,1,0,0-.8,3.979,3.979,0,1,1,3.979-3.979V74.6a.8.8,0,0,1-1.592,0V73.012a.4.4,0,1,0-.8,0,1.592,1.592,0,1,1-1.592-1.592.4.4,0,1,0,0-.8,2.388,2.388,0,1,0,1.609,4.147,1.587,1.587,0,0,0,3.166-.168Z" transform="translate(-146.412 -65.055)" fill="#0f8bfe" stroke="#0f8bfe" stroke-width="0.5"/>
      </g>
    </g>
  </g>
</svg>
