<svg xmlns="http://www.w3.org/2000/svg" width="31.856" height="31.856" viewBox="0 0 31.856 31.856">
  <path id="_1051360" data-name="1051360" d="M4.666,31.856H15.057V20.532H11.324V16.8h3.733V12.133a4.672,4.672,0,0,1,4.666-4.666H24.39V11.2H20.657a1.869,1.869,0,0,0-1.867,1.867V16.8h5.431L23.6,20.532H18.79V31.856h8.4a4.672,4.672,0,0,0,4.666-4.666V4.666A4.672,4.672,0,0,0,27.19,0H4.666A4.672,4.672,0,0,0,0,4.666V27.19A4.672,4.672,0,0,0,4.666,31.856Zm-2.8-27.19a2.8,2.8,0,0,1,2.8-2.8H27.19a2.8,2.8,0,0,1,2.8,2.8V27.19a2.8,2.8,0,0,1-2.8,2.8H20.657V22.4h4.524l1.244-7.466H20.657V13.066h5.6V5.6H19.724a6.54,6.54,0,0,0-6.533,6.533v2.8H9.457V22.4h3.733V29.99H4.666a2.8,2.8,0,0,1-2.8-2.8Zm0,0" fill="#2a8ce8"/>
</svg>
