<svg xmlns="http://www.w3.org/2000/svg" width="32.314" height="32.314" viewBox="0 0 32.314 32.314">
  <path id="_1384014" data-name="1384014" d="M16.157,0A16.157,16.157,0,1,0,32.314,16.157,16.159,16.159,0,0,0,16.157,0Zm-4.7,24.425H7.527V12.587h3.935ZM9.495,10.97H9.469a2.051,2.051,0,1,1,.052-4.091,2.052,2.052,0,1,1-.026,4.091ZM25.651,24.425H21.716V18.092c0-1.592-.57-2.677-1.994-2.677A2.154,2.154,0,0,0,17.7,16.854a2.7,2.7,0,0,0-.129.96v6.611H13.64s.052-10.728,0-11.839h3.935v1.676a3.907,3.907,0,0,1,3.546-1.954c2.589,0,4.53,1.692,4.53,5.328Zm0,0" fill="#2a8ce8"/>
</svg>
