<svg xmlns="http://www.w3.org/2000/svg" width="32.981" height="56.139" viewBox="0 0 32.981 56.139">
  <g id="next" transform="translate(-101.478 -12.135)">
    <g id="Group_36" data-name="Group 36" transform="translate(101.478)">
      <g id="Path_97" data-name="Path 97" transform="translate(-101.478 12.135)" fill="#328ae5">
        <path d="M133.564,25.879,108.581.9a3.078,3.078,0,0,0-4.343,0L102.4,2.736a3.075,3.075,0,0,0,0,4.343l20.979,20.979-21,21a3.078,3.078,0,0,0,0,4.344l1.84,1.839a3.078,3.078,0,0,0,4.343,0l25.006-25.005a3.1,3.1,0,0,0,0-4.358Z" stroke="none"/>
        <path d="M 106.4094848632813 4.382003784179688 L 105.8834686279297 4.907894134521484 L 126.205192565918 25.2296314239502 L 129.0336151123047 28.05805397033691 L 126.2051849365234 30.8864860534668 L 105.8600311279297 51.23162841796875 L 106.3861236572266 51.75746154785156 L 130.086181640625 28.05827522277832 L 106.4094848632813 4.382003784179688 M 106.4095611572266 -3.814697265625e-06 C 107.2320251464844 -3.814697265625e-06 108.0033569335938 0.3185768127441406 108.581184387207 0.8968544006347656 L 133.5639038085938 25.87913131713867 C 134.1431121826172 26.45877647399902 134.4612121582031 27.23285293579102 134.4593963623047 28.05941963195801 C 134.4612274169922 28.88278770446777 134.1431121826172 29.65732002258301 133.5639038085938 30.23743057250977 L 108.5579071044922 55.24251937866211 C 107.9800796508789 55.82079696655273 107.208740234375 56.13937759399414 106.3862915039063 56.13937759399414 C 105.5638275146484 56.13937759399414 104.7929534912109 55.82079696655273 104.2146606445313 55.24251937866211 L 102.3748626708984 53.40363311767578 C 101.7970428466797 52.82489776611328 101.4780120849609 52.05401992797852 101.4780120849609 51.23109817504883 C 101.4780120849609 50.40909957885742 101.7970428466797 49.63821029663086 102.3748626708984 49.05994415283203 L 123.3767623901367 28.05805397033691 L 102.3981475830078 7.079429626464844 C 101.2009582519531 5.882720947265625 101.2009582519531 3.934741973876953 102.3981475830078 2.736198425292969 L 104.2379455566406 0.8968544006347656 C 104.8157653808594 0.3185768127441406 105.5871124267578 -3.814697265625e-06 106.4095611572266 -3.814697265625e-06 Z" stroke="none" fill="rgba(112,112,112,0)"/>
      </g>
    </g>
  </g>
</svg>
