<svg xmlns="http://www.w3.org/2000/svg" width="32.097" height="54.634" viewBox="0 0 32.097 54.634">
  <g id="next" transform="translate(-101.478)">
    <g id="Component_1_1" data-name="Component 1 – 1" transform="translate(101.478)">
      <g id="Path_97" data-name="Path 97" transform="translate(-101.478)" fill="#224762">
        <path d="M132.7,25.185,108.391.873a3,3,0,0,0-4.227,0l-1.79,1.79a2.993,2.993,0,0,0,0,4.227l20.416,20.416L102.351,47.744a3,3,0,0,0,0,4.227l1.79,1.79a3,3,0,0,0,4.227,0L132.7,29.426a3.016,3.016,0,0,0,0-4.241Z" stroke="none"/>
        <path d="M 106.2772216796875 4.416179656982422 L 105.9170227050781 4.776287078857422 L 125.6178436279297 24.47710800170898 L 128.4462890625 27.3055305480957 L 125.6178436279297 30.13395309448242 L 105.8942413330078 49.85755920410156 L 106.2544860839844 50.21762084960938 L 129.1671905517578 27.30575180053711 L 106.2772216796875 4.416179656982422 M 106.2772979736328 -3.814697265625e-06 C 107.0777053833008 -3.814697265625e-06 107.8283538818359 0.3100318908691406 108.3906707763672 0.8727989196777344 L 132.7033538818359 25.1850528717041 C 133.2670288085938 25.74915313720703 133.5765991210938 26.50246429443359 133.5748291015625 27.30686378479004 C 133.5766143798828 28.10815238952637 133.2670288085938 28.86190795898438 132.7033538818359 29.42645263671875 L 108.3680267333984 53.76091003417969 C 107.8056869506836 54.32367324829102 107.0550537109375 54.63370895385742 106.2546539306641 54.63370895385742 C 105.4542388916016 54.63370895385742 104.7040405273438 54.32367324829102 104.1412658691406 53.76091003417969 L 102.3508148193359 51.97132873535156 C 101.7884826660156 51.40811920166016 101.4780120849609 50.65792083740234 101.4780120849609 49.85707473754883 C 101.4780120849609 49.05712127685547 101.7884826660156 48.30690765380859 102.3508148193359 47.744140625 L 122.789421081543 27.3055305480957 L 102.3734588623047 6.889564514160156 C 101.2083892822266 5.724941253662109 101.2083892822266 3.829219818115234 102.3734588623047 2.662818908691406 L 104.1639251708984 0.8727989196777344 C 104.7262420654297 0.3100318908691406 105.4768981933594 -3.814697265625e-06 106.2772979736328 -3.814697265625e-06 Z" stroke="none" fill="rgba(112,112,112,0)"/>
      </g>
    </g>
  </g>
</svg>
