<svg xmlns="http://www.w3.org/2000/svg" width="34.192" height="34.194" viewBox="0 0 34.192 34.194">
  <g id="_684812" data-name="684812" transform="translate(-0.011)">
    <g id="Group_37" data-name="Group 37" transform="translate(0.011 0)">
      <path id="Path_98" data-name="Path 98" d="M33.324,25.22l-4.251-4.251a3.009,3.009,0,0,0-4.251,0L22.89,22.9a2.28,2.28,0,0,1-3.22,0L11.3,14.52a2.276,2.276,0,0,1,0-3.22l1.932-1.932a3,3,0,0,0,0-4.252L8.977.879a3.008,3.008,0,0,0-4.248,0L3.18,2.412a10.851,10.851,0,0,0,0,15.328L16.45,31.016a10.833,10.833,0,0,0,15.328,0l1.546-1.546A3.009,3.009,0,0,0,33.324,25.22ZM6.143,2.3a1,1,0,0,1,1.418,0l4.25,4.236a1,1,0,0,1,0,1.417l-.709.708L5.438,2.995ZM17.867,29.6,4.6,16.323A8.809,8.809,0,0,1,4.044,4.435l5.648,5.648a4.277,4.277,0,0,0,.186,5.854l8.375,8.382h0a4.277,4.277,0,0,0,5.854.186l5.648,5.648A8.792,8.792,0,0,1,17.867,29.6Zm14.04-1.546-.709.709-5.668-5.668.708-.708a1,1,0,0,1,1.417,0l4.251,4.251A1,1,0,0,1,31.907,28.054Z" transform="translate(-0.011 0)" fill="#e8ebee"/>
    </g>
  </g>
</svg>
