<svg xmlns="http://www.w3.org/2000/svg" width="21.917" height="21.949" viewBox="0 0 21.917 21.949">
  <g id="_126509" data-name="126509" transform="translate(562.532 -45.163)">
    <g id="Group_33" data-name="Group 33" transform="translate(-562.532 45.163)">
      <path id="Path_88" data-name="Path 88" d="M17.675,39.733a2.159,2.159,0,0,0-1.566-.718,2.232,2.232,0,0,0-1.584.713l-1.464,1.459c-.12-.065-.241-.125-.357-.185-.167-.083-.324-.162-.459-.246a15.91,15.91,0,0,1-3.813-3.474,9.386,9.386,0,0,1-1.251-1.973c.38-.347.732-.709,1.075-1.056.13-.13.259-.264.389-.394a2.125,2.125,0,0,0,0-3.206L7.382,29.389c-.144-.144-.292-.292-.431-.44-.278-.287-.57-.584-.871-.862a2.193,2.193,0,0,0-1.552-.681,2.269,2.269,0,0,0-1.575.681l-.009.009L1.369,29.685A3.389,3.389,0,0,0,.364,31.839a8.121,8.121,0,0,0,.593,3.437A19.946,19.946,0,0,0,4.5,41.188a21.8,21.8,0,0,0,7.259,5.684,11.31,11.31,0,0,0,4.077,1.2c.1,0,.2.009.292.009A3.491,3.491,0,0,0,18.8,46.937c0-.009.014-.014.019-.023a10.531,10.531,0,0,1,.811-.838c.2-.19.4-.389.6-.6a2.311,2.311,0,0,0,.7-1.6,2.226,2.226,0,0,0-.713-1.589Zm1.658,4.878s0,0,0,0c-.181.195-.366.371-.565.565a12.181,12.181,0,0,0-.894.927,2.233,2.233,0,0,1-1.742.737c-.069,0-.144,0-.213,0a10.048,10.048,0,0,1-3.613-1.084A20.578,20.578,0,0,1,5.469,40.4a18.807,18.807,0,0,1-3.335-5.554,6.614,6.614,0,0,1-.519-2.9,2.127,2.127,0,0,1,.639-1.376l1.58-1.58a1.053,1.053,0,0,1,.7-.329.991.991,0,0,1,.676.324l.014.014c.283.264.551.537.834.829.144.148.292.3.44.449l1.265,1.265a.884.884,0,0,1,0,1.436c-.134.134-.264.269-.4.4-.389.4-.76.769-1.163,1.13-.009.009-.019.014-.023.023a.945.945,0,0,0-.241,1.052l.014.042a10.153,10.153,0,0,0,1.5,2.441l0,0a17,17,0,0,0,4.114,3.743,6.324,6.324,0,0,0,.57.31c.167.083.324.162.459.246.019.009.037.023.056.032a1,1,0,0,0,.459.116.99.99,0,0,0,.7-.32L15.4,40.609a1.048,1.048,0,0,1,.7-.347.943.943,0,0,1,.667.338l.009.009,2.553,2.553A.916.916,0,0,1,19.334,44.611Z" transform="translate(-0.344 -26.136)" fill="#0f8bfe"/>
      <path id="Path_89" data-name="Path 89" d="M245.459,87.166a5.962,5.962,0,0,1,4.855,4.855.622.622,0,0,0,.616.519.826.826,0,0,0,.107-.009.626.626,0,0,0,.514-.723,7.209,7.209,0,0,0-5.874-5.874.629.629,0,0,0-.723.51A.619.619,0,0,0,245.459,87.166Z" transform="translate(-233.613 -81.945)" fill="#0f8bfe"/>
      <path id="Path_90" data-name="Path 90" d="M259.174,9.682A11.871,11.871,0,0,0,249.5.01a.624.624,0,1,0-.2,1.232,10.6,10.6,0,0,1,8.644,8.644.622.622,0,0,0,.616.519.826.826,0,0,0,.107-.009A.614.614,0,0,0,259.174,9.682Z" transform="translate(-237.267 0)" fill="#0f8bfe"/>
    </g>
  </g>
</svg>
