<svg xmlns="http://www.w3.org/2000/svg" width="25.858" height="25.858" viewBox="0 0 25.858 25.858">
  <g id="_1946533" data-name="1946533" transform="translate(-0.001)">
    <path id="Path_95" data-name="Path 95" d="M25.155,15.519A12.492,12.492,0,0,0,10.339.7,7.229,7.229,0,0,0,.7,10.339,12.493,12.493,0,0,0,15.519,25.154a7.229,7.229,0,0,0,9.636-9.635Zm-6.526,8.823a5.645,5.645,0,0,1-2.658-.656.756.756,0,0,0-.526-.067,10.979,10.979,0,0,1-13.205-13.2.758.758,0,0,0-.067-.526,5.647,5.647,0,0,1-.657-2.659A5.721,5.721,0,0,1,7.23,1.515a5.643,5.643,0,0,1,2.658.656.757.757,0,0,0,.526.067A10.98,10.98,0,0,1,23.619,15.444a.757.757,0,0,0,.067.526,5.647,5.647,0,0,1,.656,2.658,5.72,5.72,0,0,1-5.714,5.714Zm0,0" transform="translate(0)" fill="#0f8afd"/>
    <path id="Path_96" data-name="Path 96" d="M150,111.546c2.235,0,4.123,1.167,4.123,2.549a.758.758,0,0,0,1.515,0,3.608,3.608,0,0,0-1.762-2.965,7.382,7.382,0,0,0-7.751,0,3.377,3.377,0,0,0,0,5.931,6.96,6.96,0,0,0,3.876,1.1c2.235,0,4.123,1.167,4.123,2.55S152.24,123.26,150,123.26s-4.123-1.167-4.123-2.549a.758.758,0,1,0-1.515,0,3.608,3.608,0,0,0,1.762,2.965,7.383,7.383,0,0,0,7.751,0,3.377,3.377,0,0,0,0-5.931,6.963,6.963,0,0,0-3.876-1.1c-2.235,0-4.123-1.167-4.123-2.55S147.77,111.546,150,111.546Zm0,0" transform="translate(-137.076 -104.474)" fill="#0f8afd"/>
  </g>
</svg>
