<svg xmlns="http://www.w3.org/2000/svg" width="64.184" height="64.184" viewBox="0 0 64.184 64.184">
  <path id="Path_119" data-name="Path 119" d="M32.1,0h-.016A32.072,32.072,0,0,0,6.11,50.9l-4,11.922,12.335-3.943A32.086,32.086,0,1,0,32.1,0ZM50.774,45.318c-.774,2.186-3.847,4-6.3,4.529-1.677.357-3.867.642-11.24-2.415C23.8,43.525,17.731,33.941,17.257,33.32c-.453-.622-3.811-5.075-3.811-9.68a10.245,10.245,0,0,1,3.281-7.81,4.663,4.663,0,0,1,3.281-1.151c.4,0,.754.02,1.075.036.943.04,1.416.1,2.038,1.585.774,1.865,2.66,6.471,2.884,6.944a1.91,1.91,0,0,1,.136,1.737A5.546,5.546,0,0,1,25.1,26.452c-.473.546-.923.963-1.4,1.548-.433.509-.923,1.055-.377,2a28.485,28.485,0,0,0,5.207,6.471,23.594,23.594,0,0,0,7.526,4.641,2.029,2.029,0,0,0,2.262-.357,38.828,38.828,0,0,0,2.507-3.322,1.791,1.791,0,0,1,2.3-.7c.866.3,5.452,2.567,6.394,3.037s1.564.7,1.793,1.1A7.992,7.992,0,0,1,50.774,45.318Z" fill="#328ae5"/>
</svg>
