<svg xmlns="http://www.w3.org/2000/svg" width="31.81" height="31.963" viewBox="0 0 31.81 31.963">
  <path id="_1384023" data-name="1384023" d="M27.425,4.645A15.842,15.842,0,0,0,2.5,23.756L.25,31.963l8.4-2.2a15.822,15.822,0,0,0,7.569,1.928h.007a15.845,15.845,0,0,0,11.2-27.043Zm-11.2,24.369h-.005a13.148,13.148,0,0,1-6.7-1.835l-.481-.285L4.053,28.2l1.33-4.858-.313-.5a13.164,13.164,0,1,1,11.152,6.169Zm7.221-9.86c-.4-.2-2.341-1.155-2.7-1.288s-.627-.2-.89.2-1.022,1.288-1.253,1.552-.462.3-.857.1a10.809,10.809,0,0,1-3.183-1.964,11.938,11.938,0,0,1-2.2-2.741c-.231-.4,0-.59.174-.808a11.2,11.2,0,0,0,.989-1.354.728.728,0,0,0-.033-.693c-.1-.2-.89-2.146-1.22-2.939-.322-.771-.647-.667-.891-.679s-.495-.014-.759-.014a1.454,1.454,0,0,0-1.055.5,4.439,4.439,0,0,0-1.385,3.3,7.7,7.7,0,0,0,1.616,4.094c.2.264,2.791,4.262,6.761,5.976a22.653,22.653,0,0,0,2.256.834,5.425,5.425,0,0,0,2.493.157A4.077,4.077,0,0,0,23.97,21.5a3.307,3.307,0,0,0,.231-1.882c-.1-.165-.363-.264-.758-.462Zm0,0" transform="translate(-0.25)" fill="#2a8ce8" fill-rule="evenodd"/>
</svg>
